<svg xmlns="http://www.w3.org/2000/svg" width="1024" height="1024" viewBox="0 0 1024 1024">
  <defs>
    <linearGradient id="background" x1="0" y1="0" x2="1" y2="1">
      <stop offset="0" stop-color="#17343A"/>
      <stop offset="1" stop-color="#0A171B"/>
    </linearGradient>
    <linearGradient id="coin" x1="0" y1="0" x2="1" y2="1">
      <stop offset="0" stop-color="#FFE08A"/>
      <stop offset="1" stop-color="#E7A92E"/>
    </linearGradient>
  </defs>
  <rect width="1024" height="1024" rx="224" fill="url(#background)"/>
  <circle cx="430" cy="440" r="250" fill="url(#coin)"/>
  <circle cx="430" cy="440" r="204" fill="none" stroke="#8C5A13" stroke-width="22" opacity="0.48"/>
  <path d="M595.58 300.32l-83.52 83.54-83.52-83.54-38.78 38.79 64.65 64.66h-54.65v54.85h84.87v35.45h-82.35v54.86h82.35v79.59h54.86v-79.59h82.38v-54.86h-82.38v-35.45h84.88v-54.85h-54.66l64.66-64.66z" fill="#0F1F3C" transform="translate(430 440) scale(.76) translate(-512.06 -464.42)"/>
  <circle cx="688" cy="676" r="212" fill="#F5F2E8" stroke="#FFFFFF" stroke-width="28"/>
  <circle cx="688" cy="676" r="158" fill="none" stroke="#17343A" stroke-width="18" opacity="0.18"/>
  <path d="M688 552v130l92 54" fill="none" stroke="#17343A" stroke-width="32" stroke-linecap="round" stroke-linejoin="round"/>
  <circle cx="688" cy="676" r="20" fill="#17343A"/>
</svg>
